HIERARCHY
ROOT Root
{
  OFFSET 0.0 0.0 0.0
  CHANNELS 6 Xposition Yposition Zposition Zrotation Yrotation Xrotation
  JOINT Hips
  {
    OFFSET 0.0 100.0 0.0
    CHANNELS 6 Xposition Yposition Zposition Zrotation Yrotation Xrotation
    JOINT Spine1
    {
      OFFSET 5.003913 -0.037094 -0.013727
      CHANNELS 3 Zrotation Yrotation Xrotation
      JOINT Spine2
      {
        OFFSET 7.125363 -1e-06 0.0
        CHANNELS 3 Zrotation Yrotation Xrotation
        JOINT Chest
        {
          OFFSET 7.594027 1e-06 0.0
          CHANNELS 3 Zrotation Yrotation Xrotation
          JOINT Neck1
          {
            OFFSET 26.313086 -0.460272 -0.181672
            CHANNELS 3 Zrotation Yrotation Xrotation
            JOINT Neck2
            {
              OFFSET 8.045911 0.0 0.0
              CHANNELS 3 Zrotation Yrotation Xrotation
              JOINT Head
              {
                OFFSET 6.432774 0.0 0.0
                CHANNELS 3 Zrotation Yrotation Xrotation
                JOINT HeadEnd
                {
                  OFFSET 16.169773 0.06451 0.00362
                  CHANNELS 3 Zrotation Yrotation Xrotation
                }
                JOINT Jaw
                {
                  OFFSET 0.108741 3.12938 0.002639
                  CHANNELS 3 Zrotation Yrotation Xrotation
                }
                JOINT LeftEye
                {
                  OFFSET 4.45173 8.166359 3.206392
                  CHANNELS 3 Zrotation Yrotation Xrotation
                }
                JOINT RightEye
                {
                  OFFSET 4.436895 8.135758 -3.222429
                  CHANNELS 3 Zrotation Yrotation Xrotation
                }
              }
            }
          }
          JOINT LeftShoulder
          {
            OFFSET 23.218927 5.195579 1.621656
            CHANNELS 3 Zrotation Yrotation Xrotation
            JOINT LeftArm
            {
              OFFSET 15.902118 2e-06 -2e-06
              CHANNELS 3 Zrotation Yrotation Xrotation
              JOINT LeftForeArm
              {
                OFFSET 28.739307 0.0 -1e-06
                CHANNELS 3 Zrotation Yrotation Xrotation
                JOINT LeftHand
                {
                  OFFSET 27.093981 -4e-06 0.0
                  CHANNELS 3 Zrotation Yrotation Xrotation
                  JOINT LeftHandThumb1
                  {
                    OFFSET 2.276781 3.380274 0.83384
                    CHANNELS 3 Zrotation Yrotation Xrotation
                    JOINT LeftHandThumb2
                    {
                      OFFSET 4.705309 -1e-06 -1e-06
                      CHANNELS 3 Zrotation Yrotation Xrotation
                      JOINT LeftHandThumb3
                      {
                        OFFSET 2.798515 0.0 3e-06
                        CHANNELS 3 Zrotation Yrotation Xrotation
                        JOINT LeftHandThumbEnd
                        {
                          OFFSET 3.180793 4e-06 -4e-06
                          CHANNELS 3 Zrotation Yrotation Xrotation
                        }
                      }
                    }
                  }
                  JOINT LeftHandIndex1
                  {
                    OFFSET 3.247786 2.352677 0.137192
                    CHANNELS 3 Zrotation Yrotation Xrotation
                    JOINT LeftHandIndex2
                    {
                      OFFSET 6.367095 1e-06 0.0
                      CHANNELS 3 Zrotation Yrotation Xrotation
                      JOINT LeftHandIndex3
                      {
                        OFFSET 3.662364 0.0 0.0
                        CHANNELS 3 Zrotation Yrotation Xrotation
                        JOINT LeftHandIndex4
                        {
                          OFFSET 2.329242 4e-06 -4e-06
                          CHANNELS 3 Zrotation Yrotation Xrotation
                          JOINT LeftHandIndexEnd
                          {
                            OFFSET 2.767823 1e-06 0.0
                            CHANNELS 3 Zrotation Yrotation Xrotation
                          }
                        }
                      }
                    }
                  }
                  JOINT LeftHandMiddle1
                  {
                    OFFSET 3.163612 0.945023 -0.406112
                    CHANNELS 3 Zrotation Yrotation Xrotation
                    JOINT LeftHandMiddle2
                    {
                      OFFSET 6.276789 3e-06 0.0
                      CHANNELS 3 Zrotation Yrotation Xrotation
                      JOINT LeftHandMiddle3
                      {
                        OFFSET 4.35652 -1e-06 4e-06
                        CHANNELS 3 Zrotation Yrotation Xrotation
                        JOINT LeftHandMiddle4
                        {
                          OFFSET 2.996877 0.0 8e-06
                          CHANNELS 3 Zrotation Yrotation Xrotation
                          JOINT LeftHandMiddleEnd
                          {
                            OFFSET 2.323256 3e-06 -4e-06
                            CHANNELS 3 Zrotation Yrotation Xrotation
                          }
                        }
                      }
                    }
                  }
                  JOINT LeftHandRing1
                  {
                    OFFSET 2.882606 -0.309162 0.107445
                    CHANNELS 3 Zrotation Yrotation Xrotation
                    JOINT LeftHandRing2
                    {
                      OFFSET 6.033198 0.0 4e-06
                      CHANNELS 3 Zrotation Yrotation Xrotation
                      JOINT LeftHandRing3
                      {
                        OFFSET 4.350578 3e-06 0.0
                        CHANNELS 3 Zrotation Yrotation Xrotation
                        JOINT LeftHandRing4
                        {
                          OFFSET 2.651321 2e-06 -7e-06
                          CHANNELS 3 Zrotation Yrotation Xrotation
                          JOINT LeftHandRingEnd
                          {
                            OFFSET 1.937663 1e-06 -4e-06
                            CHANNELS 3 Zrotation Yrotation Xrotation
                          }
                        }
                      }
                    }
                  }
                  JOINT LeftHandPinky1
                  {
                    OFFSET 2.865315 -1.525436 0.575687
                    CHANNELS 3 Zrotation Yrotation Xrotation
                    JOINT LeftHandPinky2
                    {
                      OFFSET 5.54936 1e-06 -8e-06
                      CHANNELS 3 Zrotation Yrotation Xrotation
                      JOINT LeftHandPinky3
                      {
                        OFFSET 3.070974 0.0 -4e-06
                        CHANNELS 3 Zrotation Yrotation Xrotation
                        JOINT LeftHandPinky4
                        {
                          OFFSET 1.549672 1e-06 0.0
                          CHANNELS 3 Zrotation Yrotation Xrotation
                          JOINT LeftHandPinkyEnd
                          {
                            OFFSET 1.952123 0.0 0.0
                            CHANNELS 3 Zrotation Yrotation Xrotation
                          }
                        }
                      }
                    }
                  }
                }
              }
            }
          }
          JOINT RightShoulder
          {
            OFFSET 23.161716 5.296122 -1.380114
            CHANNELS 3 Zrotation Yrotation Xrotation
            JOINT RightArm
            {
              OFFSET -16.027195 -2e-06 1.1e-05
              CHANNELS 3 Zrotation Yrotation Xrotation
              JOINT RightForeArm
              {
                OFFSET -28.736639 4e-06 2e-06
                CHANNELS 3 Zrotation Yrotation Xrotation
                JOINT RightHand
                {
                  OFFSET -27.133619 6e-06 0.0
                  CHANNELS 3 Zrotation Yrotation Xrotation
                  JOINT RightHandThumb1
                  {
                    OFFSET -2.274328 -3.351035 -0.83067
                    CHANNELS 3 Zrotation Yrotation Xrotation
                    JOINT RightHandThumb2
                    {
                      OFFSET -4.703594 -3e-06 2e-06
                      CHANNELS 3 Zrotation Yrotation Xrotation
                      JOINT RightHandThumb3
                      {
                        OFFSET -2.794935 -4e-06 -3e-06
                        CHANNELS 3 Zrotation Yrotation Xrotation
                        JOINT RightHandThumbEnd
                        {
                          OFFSET -3.183852 4e-06 1e-06
                          CHANNELS 3 Zrotation Yrotation Xrotation
                        }
                      }
                    }
                  }
                  JOINT RightHandIndex1
                  {
                    OFFSET -3.253496 -2.33755 -0.127667
                    CHANNELS 3 Zrotation Yrotation Xrotation
                    JOINT RightHandIndex2
                    {
                      OFFSET -6.344434 0.0 0.0
                      CHANNELS 3 Zrotation Yrotation Xrotation
                      JOINT RightHandIndex3
                      {
                        OFFSET -3.654871 0.0 -8e-06
                        CHANNELS 3 Zrotation Yrotation Xrotation
                        JOINT RightHandIndex4
                        {
                          OFFSET -2.327586 -1e-06 0.0
                          CHANNELS 3 Zrotation Yrotation Xrotation
                          JOINT RightHandIndexEnd
                          {
                            OFFSET -2.770001 3e-06 8e-06
                            CHANNELS 3 Zrotation Yrotation Xrotation
                          }
                        }
                      }
                    }
                  }
                  JOINT RightHandMiddle1
                  {
                    OFFSET -3.168223 -0.944764 0.411762
                    CHANNELS 3 Zrotation Yrotation Xrotation
                    JOINT RightHandMiddle2
                    {
                      OFFSET -6.266691 -1e-06 -4e-06
                      CHANNELS 3 Zrotation Yrotation Xrotation
                      JOINT RightHandMiddle3
                      {
                        OFFSET -4.348901 0.0 0.0
                        CHANNELS 3 Zrotation Yrotation Xrotation
                        JOINT RightHandMiddle4
                        {
                          OFFSET -3.00024 2e-06 -4e-06
                          CHANNELS 3 Zrotation Yrotation Xrotation
                          JOINT RightHandMiddleEnd
                          {
                            OFFSET -2.321477 -4e-06 -4e-06
                            CHANNELS 3 Zrotation Yrotation Xrotation
                          }
                        }
                      }
                    }
                  }
                  JOINT RightHandRing1
                  {
                    OFFSET -2.885654 0.293261 -0.119232
                    CHANNELS 3 Zrotation Yrotation Xrotation
                    JOINT RightHandRing2
                    {
                      OFFSET -6.032835 -1e-06 -4e-06
                      CHANNELS 3 Zrotation Yrotation Xrotation
                      JOINT RightHandRing3
                      {
                        OFFSET -4.33881 0.0 -4e-06
                        CHANNELS 3 Zrotation Yrotation Xrotation
                        JOINT RightHandRing4
                        {
                          OFFSET -2.654903 -4e-06 -4e-06
                          CHANNELS 3 Zrotation Yrotation Xrotation
                          JOINT RightHandRingEnd
                          {
                            OFFSET -1.935122 0.0 4e-06
                            CHANNELS 3 Zrotation Yrotation Xrotation
                          }
                        }
                      }
                    }
                  }
                  JOINT RightHandPinky1
                  {
                    OFFSET -2.866241 1.503904 -0.60527
                    CHANNELS 3 Zrotation Yrotation Xrotation
                    JOINT RightHandPinky2
                    {
                      OFFSET -5.553177 -2e-06 0.0
                      CHANNELS 3 Zrotation Yrotation Xrotation
                      JOINT RightHandPinky3
                      {
                        OFFSET -3.062664 -1e-06 -4e-06
                        CHANNELS 3 Zrotation Yrotation Xrotation
                        JOINT RightHandPinky4
                        {
                          OFFSET -1.546529 2e-06 4e-06
                          CHANNELS 3 Zrotation Yrotation Xrotation
                          JOINT RightHandPinkyEnd
                          {
                            OFFSET -1.952341 0.0 -4e-06
                            CHANNELS 3 Zrotation Yrotation Xrotation
                          }
                        }
                      }
                    }
                  }
                }
              }
            }
          }
        }
      }
    }
    JOINT LeftLeg
    {
      OFFSET -8.443107 2.567604 10.043214
      CHANNELS 3 Zrotation Yrotation Xrotation
      JOINT LeftShin
      {
        OFFSET 43.229198 1e-06 -1e-06
        CHANNELS 3 Zrotation Yrotation Xrotation
        JOINT LeftFoot
        {
          OFFSET 42.298611 1e-06 1e-06
          CHANNELS 3 Zrotation Yrotation Xrotation
          JOINT LeftToeBase
          {
            OFFSET 14.165858 1e-06 0.0
            CHANNELS 3 Zrotation Yrotation Xrotation
            JOINT LeftToeEnd
            {
              OFFSET 6.7141 -0.234461 0.0
              CHANNELS 3 Zrotation Yrotation Xrotation
            }
          }
        }
      }
    }
    JOINT RightLeg
    {
      OFFSET -8.303923 2.592729 -10.047278
      CHANNELS 3 Zrotation Yrotation Xrotation
      JOINT RightShin
      {
        OFFSET -43.369682 0.0 1e-06
        CHANNELS 3 Zrotation Yrotation Xrotation
        JOINT RightFoot
        {
          OFFSET -42.260784 4e-06 2e-06
          CHANNELS 3 Zrotation Yrotation Xrotation
          JOINT RightToeBase
          {
            OFFSET -14.222245 -2e-06 -1e-06
            CHANNELS 3 Zrotation Yrotation Xrotation
            JOINT RightToeEnd
            {
              OFFSET -6.660062 0.232574 -2e-06
              CHANNELS 3 Zrotation Yrotation Xrotation
            }
          }
        }
      }
    }
  }
}
MOTION
Frames: 4
Frame Time: 0.03333333333333333
0.0 0.0 0.0 0.0 -0.0 0.0 -0.426403 89.386932 -0.832364 87.730774 23.602385 90.187271 0.08869 1.69903 0.056816 -10.688526 0.028854 0.618638 21.053633 -1.213651 -0.481295 51.519524 -7.580479 2.251387 -2.513978 -0.660515 2.60633 -22.321238 1.359079 2.580122 6e-06 -1e-06 0.0 -0.009999 0.00242 -0.040949 0.091378 0.074652 -0.031627 0.087443 -0.080767 -0.031474 -134.507874 -76.00219 146.150024 32.958344 -1.104526 -36.092049 40.083431 0.699441 -0.005716 2.369382 -1.985793 -41.641418 17.636633 -26.322733 52.41119 -19.466661 -14.395598 29.410389 -1e-06 -8.774822 -1e-06 15.38383 -17.51619 6.200482 -0.609777 -1.795655 -3.889327 -4.80709 -11.04681 -2.93785 4e-06 -20.976019 0.0 -5.019973 -25.03356 -4.03188 6e-06 1e-06 -0.0 -10.634537 -5.68697 -3.565586 10.573276 -17.922951 -3.113901 2e-06 -13.821209 2e-06 -0.501779 -31.181505 -4.027014 -11.629618 -59.433239 7.54777 -13.982716 -7.150199 -2.875041 13.772731 -8.401495 -3.218243 0.347734 -34.211555 0.771654 -0.963028 -17.73337 2.62102 0.0 2e-06 -0.0 -17.346422 -20.095217 -4.201779 21.757561 -1.638375 3.866427 1e-06 -6.338824 1e-06 -1.697589 -22.591743 -6.194007 -0.0 -6e-06 -3e-06 36.296082 -83.198654 157.620407 19.500938 -3.835573 -34.459808 49.215061 -1.220899 -0.606603 -2.03481 1.979671 -47.311958 22.182114 -20.375889 49.9333 -16.701811 -16.743525 28.476521 -1e-06 -12.6906 -2e-06 16.328821 -17.12661 2.615024 -0.105918 -1.513857 -4.275879 -5.039039 -5.612868 -2.953555 4e-06 -11.020519 -2e-06 -6.111296 -15.895328 -3.840469 0.0 0.0 -0.0 -10.283367 -5.68029 -4.341837 11.028292 -11.302401 -2.372632 -1.384269 -14.238579 -6.32012 -0.625438 -26.924183 -3.8276 -4.857444 -49.448902 -3.01238 -13.708522 -7.363476 -3.720938 18.141146 -14.052735 -3.242674 6e-06 -18.787266 -3e-06 -0.429711 -8.456043 2.555504 -0.0 -1e-06 -0.0 -15.923532 -20.094482 -5.473582 30.419207 -7.190826 1.735927 1e-06 -8.162925 -1e-06 -1.861902 -22.861467 -6.167941 -0.0 -4e-06 -0.0 -172.957993 -15.561898 1.556326 49.110912 -0.180144 0.332568 -100.564331 -0.157866 -16.101919 -6.099748 1.458742 2.137163 -1.0 -0.0 -0.0 10.294928 -11.516492 -8.213927 47.876755 -0.136482 0.288727 -98.090424 -8.085997 -18.730383 -5.306664 0.639021 1.67399 -1.000002 -1e-06 -0.0 
0.0 0.0 0.0 0.0 -0.0 0.0 -0.418998 89.378448 -0.954019 87.793549 23.577831 90.190521 0.178045 1.657927 0.087228 -10.655407 0.043989 0.642085 21.058519 -1.234646 -0.50113 51.466427 -7.534611 2.26262 -2.502883 -0.684174 2.434164 -22.238113 1.453872 2.402086 7e-06 0.0 0.0 -0.013852 0.000394 -0.027198 0.101503 0.071187 -0.016675 0.099962 -0.081423 -0.019074 -135.175583 -76.104958 146.76123 33.512089 -0.962545 -35.860146 40.813427 0.692392 -0.02681 2.390956 -1.945529 -41.640293 17.636627 -26.322723 52.411182 -19.466663 -14.395598 29.410389 -1e-06 -8.774822 -2e-06 15.385276 -17.557096 6.199677 -0.609775 -1.795652 -3.889328 -4.80709 -11.046809 -2.937849 4e-06 -20.976015 -1e-06 -5.019972 -25.033556 -4.031882 6e-06 1e-06 -0.0 -10.634535 -5.68697 -3.565586 10.573275 -17.922951 -3.113902 3e-06 -13.821209 1e-06 -0.50178 -31.181505 -4.027015 -11.60502 -59.39415 7.521623 -13.982713 -7.150198 -2.875041 13.772729 -8.401491 -3.218242 0.347732 -34.211544 0.771654 -0.963029 -17.73337 2.621019 -1e-06 2e-06 1e-06 -17.34642 -20.095217 -4.201781 21.757557 -1.638373 3.866428 1e-06 -6.338822 0.0 -1.697589 -22.591745 -6.194007 -1e-06 -4e-06 -2e-06 35.304897 -83.431915 158.50647 20.05401 -3.649413 -34.73798 49.480644 -1.113885 -0.503958 -2.274873 2.339769 -47.846066 22.182117 -20.375898 49.933319 -16.701815 -16.743534 28.476532 -4e-06 -12.690602 -0.0 16.340725 -17.08638 2.611662 -0.10592 -1.513855 -4.275881 -5.039041 -5.612872 -2.953557 5e-06 -11.020523 -2e-06 -6.111297 -15.895334 -3.840471 -0.0 0.0 -0.0 -10.283373 -5.680288 -4.341838 11.028295 -11.302405 -2.372633 -1.38427 -14.238583 -6.32012 -0.625438 -26.924191 -3.827601 -4.887781 -49.410172 -2.961936 -13.708527 -7.363474 -3.720938 18.14115 -14.052739 -3.242674 6e-06 -18.78727 -2e-06 -0.429711 -8.456043 2.555503 -0.0 0.0 -0.0 -15.923536 -20.094484 -5.473583 30.419218 -7.190826 1.735926 4e-06 -8.162927 -1e-06 -1.861903 -22.861471 -6.167941 0.0 -3e-06 -0.0 -173.060425 -15.490246 1.553174 49.137657 -0.185111 0.330889 -100.542564 -0.159845 -16.073942 -6.116333 1.459402 2.135661 -0.999999 -0.0 -0.0 10.100099 -11.62895 -8.179923 48.065376 -0.135541 0.292765 -97.978928 -8.029543 -18.742416 -5.355594 0.641298 1.668664 -1.000001 0.0 -0.0 
0.0 0.0 0.0 0.0 -0.0 0.0 -0.414381 89.370407 -1.087054 87.87191 23.52976 90.187004 0.265726 1.598047 0.102561 -10.633955 0.044621 0.676213 21.063375 -1.260986 -0.520784 51.238323 -7.441235 2.254605 -2.488536 -0.720271 2.28837 -22.101376 1.521933 2.197654 6e-06 -1e-06 -0.0 -0.017271 -0.003198 -0.012514 0.104317 0.068188 -0.001887 0.102179 -0.085412 -0.004739 -135.933472 -76.294807 147.445831 34.151215 -0.849839 -35.51276 41.499428 0.724038 -0.053205 2.485277 -1.955426 -41.487453 17.636629 -26.322731 52.41119 -19.46666 -14.395597 29.410385 -0.0 -8.774821 -2e-06 15.390346 -17.604918 6.216506 -0.609778 -1.795651 -3.889327 -4.807087 -11.046807 -2.93785 4e-06 -20.976015 0.0 -5.019971 -25.033552 -4.03188 6e-06 1e-06 -0.0 -10.634535 -5.686968 -3.565587 10.573275 -17.922949 -3.1139 2e-06 -13.821208 2e-06 -0.50178 -31.181505 -4.027015 -11.582887 -59.347221 7.505277 -13.982714 -7.150196 -2.875042 13.772727 -8.401489 -3.21824 0.347731 -34.211544 0.771658 -0.963031 -17.733368 2.621021 1e-06 3e-06 1e-06 -17.346422 -20.095217 -4.20178 21.757563 -1.638375 3.866428 1e-06 -6.338823 1e-06 -1.697592 -22.591743 -6.194005 0.0 -5e-06 -2e-06 33.973946 -83.677734 159.712753 20.713205 -3.450534 -34.913193 49.652573 -0.934929 -0.369742 -2.568316 2.757305 -48.492611 22.18211 -20.375891 49.933323 -16.701817 -16.743525 28.476534 -1e-06 -12.690601 -0.0 16.336283 -17.081177 2.604539 -0.10592 -1.513856 -4.275883 -5.03904 -5.612872 -2.953557 4e-06 -11.020523 -3e-06 -6.111297 -15.895334 -3.840472 -1e-06 -0.0 -0.0 -10.28337 -5.680292 -4.341839 11.028296 -11.302407 -2.372634 -1.384271 -14.238586 -6.320122 -0.625437 -26.924196 -3.827604 -4.912552 -49.322266 -2.929295 -13.708524 -7.363479 -3.720939 18.141151 -14.052741 -3.242676 7e-06 -18.78727 -4e-06 -0.429711 -8.456044 2.555502 1e-06 0.0 1e-06 -15.923534 -20.094492 -5.473586 30.41921 -7.190826 1.735925 2e-06 -8.162927 -0.0 -1.861901 -22.861471 -6.167944 0.0 -3e-06 -1e-06 -173.192719 -15.413072 1.541093 49.15723 -0.185792 0.331994 -100.510452 -0.146422 -16.050997 -6.127293 1.455152 2.133365 -0.999999 0.0 0.0 9.868823 -11.788116 -8.203147 48.269444 -0.13048 0.290152 -97.886894 -7.872146 -18.741411 -5.38084 0.640529 1.663979 -1.000001 0.0 0.0 
0.0 0.0 0.0 0.0 -0.0 0.0 -0.410183 89.36161 -1.221854 87.9571 23.455488 90.161842 0.34657 1.523088 0.105097 -10.607306 0.029718 0.70918 21.054514 -1.301528 -0.544885 50.800484 -7.335259 2.216521 -2.482371 -0.750292 2.189579 -21.890894 1.561055 2.007431 6e-06 -0.0 -0.0 -0.023529 -0.006168 -0.001659 0.096919 0.068545 0.008418 0.091211 -0.091265 0.006159 -136.759705 -76.529755 148.189346 34.829899 -0.782396 -35.034218 42.228794 0.7707 -0.117446 2.660347 -2.006776 -41.211006 17.636633 -26.322733 52.41119 -19.466665 -14.3956 29.410389 -1e-06 -8.774822 -1e-06 15.430113 -17.662128 6.239583 -0.609776 -1.795653 -3.889328 -4.80709 -11.046814 -2.93785 4e-06 -20.976021 -0.0 -5.019973 -25.033564 -4.031879 6e-06 0.0 -0.0 -10.634535 -5.686971 -3.565586 10.573277 -17.922955 -3.113902 3e-06 -13.821213 1e-06 -0.501778 -31.181511 -4.027014 -11.579012 -59.348778 7.502162 -13.982716 -7.150199 -2.875041 13.772731 -8.401493 -3.218242 0.347733 -34.211555 0.771656 -0.963028 -17.73337 2.621019 -1e-06 1e-06 -1e-06 -17.346418 -20.095219 -4.201779 21.757557 -1.638375 3.866426 0.0 -6.338825 1e-06 -1.697591 -22.591749 -6.194006 -0.0 -6e-06 -2e-06 31.992889 -83.946762 161.552246 21.436562 -3.276438 -35.039791 49.766926 -0.736053 -0.228778 -2.914021 3.206931 -49.264736 22.182114 -20.375895 49.933319 -16.701813 -16.74353 28.47653 -2e-06 -12.690603 -1e-06 16.327497 -17.109318 2.585432 -0.105919 -1.513854 -4.275882 -5.039042 -5.612874 -2.953555 4e-06 -11.020525 -2e-06 -6.1113 -15.895334 -3.84047 -0.0 -0.0 0.0 -10.283371 -5.680291 -4.341837 11.028296 -11.302404 -2.372634 -1.384271 -14.238583 -6.320122 -0.62544 -26.924194 -3.827602 -4.913682 -49.216694 -2.945671 -13.708526 -7.363479 -3.720938 18.141153 -14.052739 -3.242676 4e-06 -18.78727 -2e-06 -0.429711 -8.456041 2.555503 0.0 -0.0 0.0 -15.923536 -20.094484 -5.473583 30.419218 -7.190823 1.735925 3e-06 -8.162927 -0.0 -1.861904 -22.861469 -6.167944 -0.0 -3e-06 -1e-06 -173.34053 -15.333553 1.503788 49.16008 -0.178896 0.335275 -100.494019 -0.116486 -16.05514 -6.123278 1.442242 2.132111 -0.999999 -0.0 -0.0 9.617983 -11.959486 -8.252466 48.444607 -0.122907 0.286736 -97.925873 -7.692133 -18.70887 -5.370376 0.636857 1.661049 -1.000002 -1e-06 -0.0 
